<svg xmlns="http://www.w3.org/2000/svg" width="640" height="400" fill="none">
  <defs>
    <linearGradient id="bg" x1="0" y1="0" x2="640" y2="400" gradientUnits="userSpaceOnUse">
      <stop offset="0" stop-color="#0d1a26"/>
      <stop offset="1" stop-color="#1a3048"/>
    </linearGradient>
    <linearGradient id="card" x1="0" y1="0" x2="0" y2="1">
      <stop offset="0" stop-color="#1c3450"/>
      <stop offset="1" stop-color="#162a40"/>
    </linearGradient>
    <linearGradient id="high" x1="0" y1="0" x2="1" y2="0">
      <stop offset="0" stop-color="#2d8a6e" stop-opacity=".3"/>
      <stop offset="1" stop-color="#2d8a6e" stop-opacity="0"/>
    </linearGradient>
  </defs>
  <rect width="640" height="400" rx="12" fill="url(#bg)"/>

  <!-- Header -->
  <rect x="24" y="20" width="592" height="44" rx="8" fill="#1c3450" opacity=".7"/>
  <text x="44" y="47" font-family="system-ui,sans-serif" font-size="11" font-weight="600" fill="#5c9fd4" letter-spacing=".08em">MAXIMUS'S PICKS</text>
  <rect x="188" y="34" width="90" height="18" rx="9" fill="#2d8a6e" opacity=".25"/>
  <text x="196" y="47" font-family="system-ui,sans-serif" font-size="9" font-weight="600" fill="#2d8a6e">DATA-DRIVEN</text>

  <!-- Column headers -->
  <rect x="24" y="76" width="145" height="30" rx="6" fill="#3C79B4" opacity=".2"/>
  <text x="54" y="95" font-family="system-ui,sans-serif" font-size="10" font-weight="600" fill="#7bb8e0">PICK 'EM</text>
  <rect x="177" y="76" width="145" height="30" rx="6" fill="#3C79B4" opacity=".15"/>
  <text x="220" y="95" font-family="system-ui,sans-serif" font-size="10" font-weight="600" fill="#5c9fd4">ATS</text>
  <rect x="330" y="76" width="145" height="30" rx="6" fill="#3C79B4" opacity=".15"/>
  <text x="367" y="95" font-family="system-ui,sans-serif" font-size="10" font-weight="600" fill="#5c9fd4">VALUE</text>
  <rect x="483" y="76" width="133" height="30" rx="6" fill="#3C79B4" opacity=".15"/>
  <text x="512" y="95" font-family="system-ui,sans-serif" font-size="10" font-weight="600" fill="#5c9fd4">TOTALS</text>

  <!-- Pick'Em column -->
  <rect x="24" y="114" width="145" height="56" rx="6" fill="url(#high)"/>
  <rect x="24" y="114" width="145" height="56" rx="6" fill="url(#card)" opacity=".6"/>
  <text x="40" y="134" font-family="system-ui,sans-serif" font-size="12" font-weight="600" fill="#ffffff">Duke ML</text>
  <rect x="40" y="140" width="40" height="14" rx="3" fill="#2d8a6e" opacity=".3"/>
  <text x="46" y="151" font-family="monospace" font-size="8" font-weight="700" fill="#2d8a6e">HIGH</text>
  <text x="40" y="162" font-family="monospace" font-size="9" fill="#5c9fd4">-115 vs UNC</text>

  <rect x="24" y="176" width="145" height="56" rx="6" fill="url(#card)" opacity=".5"/>
  <text x="40" y="196" font-family="system-ui,sans-serif" font-size="12" font-weight="600" fill="#ffffff">Houston ML</text>
  <rect x="40" y="202" width="40" height="14" rx="3" fill="#2d8a6e" opacity=".3"/>
  <text x="46" y="213" font-family="monospace" font-size="8" font-weight="700" fill="#2d8a6e">HIGH</text>
  <text x="40" y="224" font-family="monospace" font-size="9" fill="#5c9fd4">-800 vs Cincy</text>

  <rect x="24" y="238" width="145" height="56" rx="6" fill="url(#card)" opacity=".4"/>
  <text x="40" y="258" font-family="system-ui,sans-serif" font-size="12" font-weight="600" fill="#ffffff">Tennessee ML</text>
  <rect x="40" y="264" width="32" height="14" rx="3" fill="#B7986C" opacity=".3"/>
  <text x="46" y="275" font-family="monospace" font-size="8" font-weight="700" fill="#B7986C">MED</text>
  <text x="40" y="286" font-family="monospace" font-size="9" fill="#5c9fd4">-220 vs Vandy</text>

  <!-- ATS column -->
  <rect x="177" y="114" width="145" height="56" rx="6" fill="url(#card)" opacity=".6"/>
  <text x="193" y="134" font-family="system-ui,sans-serif" font-size="12" font-weight="600" fill="#ffffff">Purdue -4.5</text>
  <rect x="193" y="140" width="40" height="14" rx="3" fill="#2d8a6e" opacity=".3"/>
  <text x="199" y="151" font-family="monospace" font-size="8" font-weight="700" fill="#2d8a6e">HIGH</text>
  <text x="193" y="162" font-family="monospace" font-size="9" fill="#5c9fd4">ATS: 14-6 (70%)</text>

  <rect x="177" y="176" width="145" height="56" rx="6" fill="url(#card)" opacity=".5"/>
  <text x="193" y="196" font-family="system-ui,sans-serif" font-size="12" font-weight="600" fill="#ffffff">Auburn -6</text>
  <rect x="193" y="202" width="32" height="14" rx="3" fill="#B7986C" opacity=".3"/>
  <text x="199" y="213" font-family="monospace" font-size="8" font-weight="700" fill="#B7986C">MED</text>
  <text x="193" y="224" font-family="monospace" font-size="9" fill="#5c9fd4">ATS: 12-8 (60%)</text>

  <rect x="177" y="238" width="145" height="56" rx="6" fill="url(#card)" opacity=".4"/>
  <text x="193" y="258" font-family="system-ui,sans-serif" font-size="12" font-weight="600" fill="#ffffff">Kansas -3</text>
  <rect x="193" y="264" width="32" height="14" rx="3" fill="#B7986C" opacity=".3"/>
  <text x="199" y="275" font-family="monospace" font-size="8" font-weight="700" fill="#B7986C">MED</text>
  <text x="193" y="286" font-family="monospace" font-size="9" fill="#5c9fd4">ATS: 11-9 (55%)</text>

  <!-- Value column -->
  <rect x="330" y="114" width="145" height="56" rx="6" fill="url(#card)" opacity=".6"/>
  <text x="346" y="134" font-family="system-ui,sans-serif" font-size="12" font-weight="600" fill="#ffffff">Dayton +7.5</text>
  <rect x="346" y="140" width="40" height="14" rx="3" fill="#2d8a6e" opacity=".3"/>
  <text x="352" y="151" font-family="monospace" font-size="8" font-weight="700" fill="#2d8a6e">HIGH</text>
  <text x="346" y="162" font-family="monospace" font-size="9" fill="#5c9fd4">Cover rate: 68%</text>

  <rect x="330" y="176" width="145" height="56" rx="6" fill="url(#card)" opacity=".5"/>
  <text x="346" y="196" font-family="system-ui,sans-serif" font-size="12" font-weight="600" fill="#ffffff">VCU +5</text>
  <rect x="346" y="202" width="32" height="14" rx="3" fill="#B7986C" opacity=".3"/>
  <text x="352" y="213" font-family="monospace" font-size="8" font-weight="700" fill="#B7986C">MED</text>
  <text x="346" y="224" font-family="monospace" font-size="9" fill="#5c9fd4">Cover rate: 62%</text>

  <!-- Totals column -->
  <rect x="483" y="114" width="133" height="56" rx="6" fill="url(#card)" opacity=".6"/>
  <text x="499" y="134" font-family="system-ui,sans-serif" font-size="12" font-weight="600" fill="#ffffff">OVER 156.5</text>
  <rect x="499" y="140" width="40" height="14" rx="3" fill="#2d8a6e" opacity=".3"/>
  <text x="505" y="151" font-family="monospace" font-size="8" font-weight="700" fill="#2d8a6e">HIGH</text>
  <text x="499" y="162" font-family="monospace" font-size="9" fill="#5c9fd4">KU vs ISU</text>

  <rect x="483" y="176" width="133" height="56" rx="6" fill="url(#card)" opacity=".5"/>
  <text x="499" y="196" font-family="system-ui,sans-serif" font-size="12" font-weight="600" fill="#ffffff">UNDER 130</text>
  <rect x="499" y="202" width="32" height="14" rx="3" fill="#B7986C" opacity=".3"/>
  <text x="505" y="213" font-family="monospace" font-size="8" font-weight="700" fill="#B7986C">MED</text>
  <text x="499" y="224" font-family="monospace" font-size="9" fill="#5c9fd4">Wiscy vs MSU</text>

  <!-- Summary bar -->
  <rect x="24" y="310" width="592" height="68" rx="8" fill="#1c3450" opacity=".4"/>
  <text x="44" y="334" font-family="system-ui,sans-serif" font-size="9" font-weight="600" fill="#5c9fd4" letter-spacing=".08em">BOARD SUMMARY</text>
  <text x="44" y="354" font-family="system-ui,sans-serif" font-size="13" font-weight="600" fill="#ffffff">12 games · 18 qualified picks · Spreads-heavy board</text>
  <rect x="44" y="362" width="200" height="6" rx="3" fill="#1a3048"/>
  <rect x="44" y="362" width="140" height="6" rx="3" fill="#3C79B4"/>
  <rect x="440" y="326" width="80" height="22" rx="4" fill="#2d8a6e" opacity=".2"/>
  <text x="450" y="342" font-family="monospace" font-size="10" font-weight="600" fill="#2d8a6e">STRONG</text>
</svg>
