<svg xmlns="http://www.w3.org/2000/svg" width="640" height="400" fill="none">
  <defs>
    <linearGradient id="bg" x1="0" y1="0" x2="640" y2="400" gradientUnits="userSpaceOnUse">
      <stop offset="0" stop-color="#0d1a26"/>
      <stop offset="1" stop-color="#1a3048"/>
    </linearGradient>
    <linearGradient id="card" x1="0" y1="0" x2="0" y2="1">
      <stop offset="0" stop-color="#1c3450"/>
      <stop offset="1" stop-color="#162a40"/>
    </linearGradient>
  </defs>
  <rect width="640" height="400" rx="12" fill="url(#bg)"/>

  <!-- Header -->
  <rect x="24" y="20" width="592" height="44" rx="8" fill="#1c3450" opacity=".7"/>
  <text x="44" y="47" font-family="system-ui,sans-serif" font-size="11" font-weight="600" fill="#5c9fd4" letter-spacing=".08em">ODDS INSIGHTS</text>
  <rect x="164" y="34" width="74" height="18" rx="9" fill="#B7986C" opacity=".25"/>
  <text x="174" y="47" font-family="system-ui,sans-serif" font-size="9" font-weight="600" fill="#B7986C">LIVE BOARD</text>

  <!-- Market Movers -->
  <rect x="24" y="76" width="190" height="110" rx="8" fill="url(#card)" opacity=".8"/>
  <text x="40" y="98" font-family="system-ui,sans-serif" font-size="9" font-weight="600" fill="#5c9fd4" letter-spacing=".08em">BIGGEST FAVORITE</text>
  <text x="40" y="120" font-family="system-ui,sans-serif" font-size="15" font-weight="700" fill="#ffffff">Houston</text>
  <text x="40" y="140" font-family="monospace" font-size="20" font-weight="700" fill="#c45c4a">-14.5</text>
  <text x="40" y="158" font-family="system-ui,sans-serif" font-size="10" fill="#5c9fd4">vs Cincinnati · O/U 138</text>
  <text x="40" y="174" font-family="monospace" font-size="10" fill="#c45c4a">Ľ moved from -12</text>

  <rect x="224" y="76" width="190" height="110" rx="8" fill="url(#card)" opacity=".8"/>
  <text x="240" y="98" font-family="system-ui,sans-serif" font-size="9" font-weight="600" fill="#5c9fd4" letter-spacing=".08em">CLOSEST SPREAD</text>
  <text x="240" y="120" font-family="system-ui,sans-serif" font-size="15" font-weight="700" fill="#ffffff">Duke vs UNC</text>
  <text x="240" y="140" font-family="monospace" font-size="20" font-weight="700" fill="#B7986C">-1.0</text>
  <text x="240" y="158" font-family="system-ui,sans-serif" font-size="10" fill="#5c9fd4">Pick 'em territory</text>
  <text x="240" y="174" font-family="monospace" font-size="10" fill="#2d8a6e">˛ moved from -2.5</text>

  <rect x="424" y="76" width="192" height="110" rx="8" fill="url(#card)" opacity=".8"/>
  <text x="440" y="98" font-family="system-ui,sans-serif" font-size="9" font-weight="600" fill="#5c9fd4" letter-spacing=".08em">HIGHEST O/U</text>
  <text x="440" y="120" font-family="system-ui,sans-serif" font-size="15" font-weight="700" fill="#ffffff">Kansas vs ISU</text>
  <text x="440" y="140" font-family="monospace" font-size="20" font-weight="700" fill="#7bb8e0">156.5</text>
  <text x="440" y="158" font-family="system-ui,sans-serif" font-size="10" fill="#5c9fd4">Both teams avg 80+ PPG</text>
  <text x="440" y="174" font-family="monospace" font-size="10" fill="#2d8a6e">˛ +3.5 from open</text>

  <!-- Matchup card -->
  <rect x="24" y="200" width="296" height="88" rx="8" fill="url(#card)" opacity=".7"/>
  <text x="40" y="222" font-family="system-ui,sans-serif" font-size="9" font-weight="600" fill="#5c9fd4" letter-spacing=".08em">HIGH INTEREST MATCHUP</text>
  <text x="40" y="244" font-family="system-ui,sans-serif" font-size="14" font-weight="600" fill="#ffffff">#5 Duke vs #12 UNC</text>
  <text x="40" y="264" font-family="monospace" font-size="11" fill="#7bb8e0">Spread: -1 · ML: -115/+105 · O/U: 148</text>
  <rect x="40" y="272" width="80" height="6" rx="3" fill="#1a3048"/>
  <rect x="40" y="272" width="52" height="6" rx="3" fill="#3C79B4"/>

  <!-- Underdog watch -->
  <rect x="332" y="200" width="284" height="88" rx="8" fill="url(#card)" opacity=".7"/>
  <text x="348" y="222" font-family="system-ui,sans-serif" font-size="9" font-weight="600" fill="#5c9fd4" letter-spacing=".08em">UNDERDOG WATCH</text>
  <text x="348" y="244" font-family="system-ui,sans-serif" font-size="14" font-weight="600" fill="#ffffff">Dayton +7.5 at Marquette</text>
  <rect x="348" y="252" width="52" height="16" rx="4" fill="#2d8a6e" opacity=".2"/>
  <text x="356" y="264" font-family="monospace" font-size="9" font-weight="600" fill="#2d8a6e">VALUE</text>
  <text x="348" y="280" font-family="monospace" font-size="11" fill="#7bb8e0">ATS: 15-7 · Cover rate: 68.2%</text>

  <!-- Spread distribution -->
  <rect x="24" y="300" width="592" height="80" rx="8" fill="#1c3450" opacity=".4"/>
  <text x="44" y="322" font-family="system-ui,sans-serif" font-size="9" font-weight="600" fill="#5c9fd4" letter-spacing=".08em">SPREAD DISTRIBUTION</text>
  <!-- Bar chart -->
  <rect x="44" y="344" width="40" height="24" rx="3" fill="#3C79B4" opacity=".8"/>
  <rect x="94" y="338" width="40" height="30" rx="3" fill="#3C79B4" opacity=".9"/>
  <rect x="144" y="330" width="40" height="38" rx="3" fill="#3C79B4"/>
  <rect x="194" y="336" width="40" height="32" rx="3" fill="#3C79B4" opacity=".85"/>
  <rect x="244" y="346" width="40" height="22" rx="3" fill="#3C79B4" opacity=".7"/>
  <rect x="294" y="350" width="40" height="18" rx="3" fill="#3C79B4" opacity=".6"/>
  <rect x="344" y="354" width="40" height="14" rx="3" fill="#3C79B4" opacity=".5"/>
  <rect x="394" y="358" width="40" height="10" rx="3" fill="#3C79B4" opacity=".4"/>
  <text x="44" y="374" font-family="monospace" font-size="8" fill="#5c9fd4">1-3</text>
  <text x="94" y="374" font-family="monospace" font-size="8" fill="#5c9fd4">3-5</text>
  <text x="144" y="374" font-family="monospace" font-size="8" fill="#5c9fd4">5-8</text>
  <text x="194" y="374" font-family="monospace" font-size="8" fill="#5c9fd4">8-10</text>
  <text x="244" y="374" font-family="monospace" font-size="8" fill="#5c9fd4">10-14</text>
  <text x="294" y="374" font-family="monospace" font-size="8" fill="#5c9fd4">14-18</text>
  <text x="344" y="374" font-family="monospace" font-size="8" fill="#5c9fd4">18-22</text>
  <text x="394" y="374" font-family="monospace" font-size="8" fill="#5c9fd4">22+</text>
</svg>
